<svg width="96" height="96" xmlns="http://www.w3.org/2000/svg" xmlns:xlink="http://www.w3.org/1999/xlink" xml:space="preserve" overflow="hidden"><g transform="translate(-318 -575)"><path d="M398 609 398 588 391.3 594.7C384.6 588.7 375.7 585 366 585 345 585 328 602 328 623 328 644 345 661 366 661 376.5 661 386 656.7 392.9 649.9L384.4 641.4C379.7 646.1 373.2 649 366 649 351.7 649 340 637.3 340 623 340 608.7 351.7 597 366 597 372.4 597 378.3 599.3 382.8 603.2L377 609 398 609Z" stroke="#000000" stroke-width="2.66667"/></g></svg>